Coordinates
version=1
nRows=41
nColumns=38
inDegrees=no

Units are S.I. units (second, meters, Newtons, ...)
If the header above contains a line with 'inDegrees', this indicates whether rotational values are in degrees (yes) or radians (no).

endheader
time	pelvis_tilt	pelvis_list	pelvis_rotation	pelvis_tx	pelvis_ty	pelvis_tz	hip_flexion_r	hip_adduction_r	hip_rotation_r	knee_angle_r	ankle_angle_r	subtalar_angle_r	mtp_angle_r	hip_flexion_l	hip_adduction_l	hip_rotation_l	knee_angle_l	ankle_angle_l	subtalar_angle_l	mtp_angle_l	lumbar_extension	lumbar_bending	lumbar_rotation	arm_flex_r	arm_add_r	arm_rot_r	elbow_flex_r	pro_sup_r	wrist_flex_r	wrist_dev_r	arm_flex_l	arm_add_l	arm_rot_l	elbow_flex_l	pro_sup_l	wrist_flex_l	wrist_dev_l
67.45	-0.0840542	0.959114	1.69375	0.70247	0.0999091	0.720039	1.64809	-0.649264	-0.353209	1.66587	0.294132	0	0	1.46394	-0.514189	-0.533522	1.62269	0.423997	0	0	-0.456333	-0.0470676	-0.0530785	1.28066	-0.343733	0.151001	0.916393	0.820944	0	0	1.31189	-0.484846	0.332758	0.885175	0.7747	0	0
67.46	-0.0841045	0.957888	1.69381	0.701954	0.100464	0.720096	1.64802	-0.649783	-0.352915	1.66509	0.295593	0	0	1.46375	-0.513908	-0.534498	1.6228	0.424955	0	0	-0.456799	-0.0471502	-0.0531791	1.27953	-0.34356	0.147025	0.918602	0.824158	0	0	1.31247	-0.484866	0.334003	0.884773	0.778226	0	0
67.47	-0.0831406	0.956104	1.69327	0.701432	0.100958	0.720077	1.64826	-0.650218	-0.353295	1.66412	0.296968	0	0	1.46484	-0.513358	-0.534654	1.62288	0.425579	0	0	-0.456321	-0.0466152	-0.0534521	1.27906	-0.343243	0.145321	0.919268	0.830827	0	0	1.31237	-0.485007	0.334734	0.884561	0.783346	0	0
67.48	-0.0851146	0.943192	1.68815	0.701325	0.0998869	0.71924	1.67233	-0.612075	-0.312621	1.65547	0.300213	0	0	1.47748	-0.51609	-0.536307	1.62038	0.423335	0	0	-0.442782	-0.0519485	-0.0490431	1.27823	-0.343415	0.148324	0.918216	0.830576	0	0	1.31073	-0.485432	0.335346	0.884479	0.783697	0	0
67.49	-0.0800619	0.953614	1.69198	0.700278	0.101965	0.72012	1.64696	-0.652431	-0.356127	1.66234	0.299829	0	0	1.46687	-0.511078	-0.533607	1.62294	0.426418	0	0	-0.45634	-0.0443265	-0.0549539	1.28052	-0.343658	0.150451	0.916745	0.831527	0	0	1.31213	-0.485134	0.335353	0.884058	0.782337	0	0
67.5	-0.0788606	0.952782	1.6913	0.699731	0.102503	0.720206	1.64604	-0.653252	-0.357224	1.66171	0.301259	0	0	1.46745	-0.510046	-0.532892	1.62314	0.427124	0	0	-0.457023	-0.0434983	-0.0554383	1.28114	-0.344498	0.153629	0.915328	0.830744	0	0	1.31243	-0.484846	0.335098	0.883337	0.783363	0	0
67.51	-0.0781773	0.951648	1.68969	0.699347	0.103025	0.720218	1.64601	-0.652019	-0.357107	1.66098	0.302136	0	0	1.46829	-0.510491	-0.532325	1.62376	0.427543	0	0	-0.457242	-0.0438274	-0.0543837	1.28047	-0.345415	0.154617	0.915386	0.828887	0	0	1.31298	-0.484164	0.335353	0.882388	0.784094	0	0
67.52	-0.0778552	0.950174	1.68753	0.699102	0.103553	0.720166	1.64687	-0.649318	-0.355966	1.66028	0.302465	0	0	1.46945	-0.511964	-0.531941	1.62458	0.427487	0	0	-0.457066	-0.0450713	-0.0521708	1.27882	-0.346225	0.153901	0.916381	0.824832	0	0	1.3139	-0.483242	0.336637	0.881057	0.786132	0	0
67.53	-0.0815609	0.937101	1.6816	0.69926	0.102487	0.71929	1.67281	-0.608078	-0.31247	1.65206	0.303946	0	0	1.48222	-0.516561	-0.533633	1.62274	0.424685	0	0	-0.443485	-0.0528814	-0.0451319	1.27616	-0.346538	0.15302	0.915982	0.824377	0	0	1.31356	-0.482572	0.338667	0.879828	0.786565	0	0
67.54	-0.0763136	0.949038	1.68468	0.698395	0.104747	0.720135	1.64683	-0.647343	-0.354663	1.66045	0.303346	0	0	1.47103	-0.512618	-0.529595	1.62676	0.427451	0	0	-0.458744	-0.0457478	-0.0493833	1.27772	-0.346592	0.151669	0.914921	0.82484	0	0	1.31637	-0.481349	0.340136	0.878601	0.785168	0	0
67.55	-0.0748802	0.949131	1.68361	0.697916	0.10535	0.720149	1.646	-0.647884	-0.354744	1.66113	0.30376	0	0	1.47182	-0.512007	-0.527622	1.62818	0.42749	0	0	-0.460245	-0.0449171	-0.0490394	1.27885	-0.346696	0.152713	0.912923	0.82494	0	0	1.3173	-0.480643	0.340334	0.877145	0.78648	0	0
67.56	-0.073074	0.94823	1.68143	0.697526	0.105885	0.720003	1.64651	-0.647011	-0.35425	1.66152	0.303246	0	0	1.4739	-0.512398	-0.525712	1.62973	0.427101	0	0	-0.460069	-0.0441878	-0.0483743	1.27985	-0.346818	0.155874	0.910743	0.825991	0	0	1.31708	-0.480567	0.339907	0.875922	0.791229	0	0
67.57	-0.0762181	0.934796	1.67544	0.697541	0.104707	0.718973	1.67324	-0.60715	-0.311578	1.65361	0.303373	0	0	1.48797	-0.516364	-0.526854	1.62825	0.423854	0	0	-0.445361	-0.0507558	-0.0428352	1.27918	-0.346661	0.159414	0.908662	0.826655	0	0	1.31509	-0.481152	0.340264	0.875068	0.790356	0	0
67.58	-0.07491	0.934376	1.67419	0.697108	0.105316	0.718781	1.6732	-0.607781	-0.311781	1.65419	0.303427	0	0	1.48919	-0.516414	-0.52544	1.62993	0.423884	0	0	-0.445564	-0.0499515	-0.0430305	1.27971	-0.346363	0.16226	0.906943	0.827138	0	0	1.3146	-0.481338	0.339919	0.874146	0.790893	0	0
67.59	-0.0743162	0.933904	1.67343	0.696716	0.105969	0.718516	1.67337	-0.608453	-0.311494	1.65511	0.303776	0	0	1.48994	-0.516787	-0.524778	1.63175	0.424415	0	0	-0.445581	-0.0498464	-0.0429221	1.27931	-0.346072	0.163686	0.905529	0.826919	0	0	1.31413	-0.48135	0.340013	0.873365	0.791268	0	0
67.6	-0.0742164	0.933461	1.67294	0.69637	0.106672	0.718204	1.67353	-0.609008	-0.311046	1.65605	0.304724	0	0	1.49025	-0.517432	-0.524694	1.63362	0.42527	0	0	-0.445633	-0.0502964	-0.0422957	1.27827	-0.345981	0.163639	0.904425	0.82611	0	0	1.31393	-0.481122	0.340884	0.872301	0.79148	0	0
67.61	-0.0741029	0.933107	1.67226	0.696102	0.107426	0.717861	1.67339	-0.609171	-0.310757	1.6569	0.306365	0	0	1.49034	-0.518445	-0.524718	1.63551	0.426151	0	0	-0.445725	-0.0510393	-0.0410732	1.27682	-0.346007	0.162434	0.903368	0.825063	0	0	1.31395	-0.480722	0.342298	0.871357	0.791021	0	0
67.62	-0.0738606	0.932955	1.67152	0.695838	0.108196	0.717477	1.67291	-0.609295	-0.311014	1.65735	0.308975	0	0	1.49034	-0.51954	-0.524559	1.63763	0.427335	0	0	-0.445996	-0.0516958	-0.0396616	1.27569	-0.346403	0.161691	0.901831	0.823808	0	0	1.31403	-0.480435	0.343908	0.871205	0.789856	0	0
67.63	-0.0731288	0.933068	1.67068	0.69556	0.108982	0.717046	1.67215	-0.609511	-0.311244	1.65831	0.311592	0	0	1.49049	-0.520549	-0.523761	1.64009	0.428731	0	0	-0.446407	-0.0518759	-0.0384394	1.27477	-0.347264	0.161532	0.900644	0.821902	0	0	1.31389	-0.480502	0.345659	0.872069	0.788793	0	0
67.64	-0.0718227	0.933309	1.66982	0.69525	0.109771	0.716594	1.6713	-0.609889	-0.311348	1.65961	0.313828	0	0	1.49095	-0.521139	-0.522397	1.64263	0.430023	0	0	-0.446787	-0.0514721	-0.0375305	1.27363	-0.348747	0.161933	0.900784	0.819984	0	0	1.31356	-0.480752	0.347525	0.873601	0.788454	0	0
67.65	-0.0701909	0.933428	1.66922	0.694877	0.110516	0.71613	1.67084	-0.610509	-0.310951	1.66114	0.315698	0	0	1.49192	-0.521081	-0.520691	1.64511	0.430746	0	0	-0.446852	-0.0505813	-0.0369523	1.272	-0.350691	0.162428	0.902406	0.819056	0	0	1.31335	-0.480824	0.349734	0.874848	0.788518	0	0
67.66	-0.0687134	0.933507	1.66921	0.694492	0.11126	0.715687	1.67089	-0.611354	-0.309694	1.66301	0.317092	0	0	1.4929	-0.520521	-0.519045	1.64751	0.431387	0	0	-0.446723	-0.0497076	-0.0365873	1.26953	-0.352714	0.162368	0.904932	0.816039	0	0	1.31351	-0.48064	0.35288	0.875268	0.786576	0	0
67.67	-0.0676321	0.933768	1.6698	0.69412	0.112025	0.715281	1.67126	-0.612318	-0.307642	1.66511	0.317995	0	0	1.49347	-0.519686	-0.517744	1.64986	0.432009	0	0	-0.446722	-0.0491046	-0.0363745	1.26682	-0.354233	0.160806	0.906257	0.816677	0	0	1.3142	-0.479864	0.356106	0.874269	0.786835	0	0
67.68	-0.0666828	0.934391	1.67052	0.6938	0.11283	0.714903	1.67153	-0.613012	-0.304928	1.66765	0.318808	0	0	1.49359	-0.519086	-0.516619	1.65235	0.432309	0	0	-0.44701	-0.0487441	-0.036092	1.2637	-0.355271	0.157719	0.907113	0.815886	0	0	1.31563	-0.478814	0.360493	0.871909	0.78568	0	0
67.69	-0.0658262	0.935212	1.67099	0.693544	0.113657	0.714553	1.67169	-0.613037	-0.301972	1.67003	0.319441	0	0	1.49341	-0.519035	-0.515647	1.65491	0.43237	0	0	-0.447449	-0.0485882	-0.0356312	1.26054	-0.355992	0.154003	0.907808	0.814925	0	0	1.31734	-0.477852	0.365174	0.868829	0.783643	0	0
67.7	-0.064822	0.936257	1.67105	0.693347	0.114497	0.714254	1.67139	-0.612443	-0.299264	1.67213	0.320069	0	0	1.49299	-0.519414	-0.514593	1.65747	0.43254	0	0	-0.448056	-0.0483786	-0.0351624	1.25764	-0.35663	0.150702	0.90818	0.814037	0	0	1.31856	-0.477363	0.369095	0.866823	0.781184	0	0
67.71	-0.0635862	0.937467	1.67089	0.693165	0.115334	0.714022	1.67056	-0.611621	-0.296943	1.6739	0.321092	0	0	1.4924	-0.519694	-0.513333	1.65985	0.432864	0	0	-0.44868	-0.0479232	-0.0349595	1.25477	-0.357515	0.148326	0.90905	0.813542	0	0	1.31873	-0.477302	0.371796	0.867265	0.778991	0	0
67.72	-0.062158	0.938772	1.67085	0.692955	0.11617	0.71386	1.66927	-0.611063	-0.295104	1.67526	0.322498	0	0	1.49165	-0.519533	-0.512004	1.66191	0.433373	0	0	-0.449131	-0.0471841	-0.0351729	1.25149	-0.358773	0.147289	0.911398	0.814188	0	0	1.3179	-0.477264	0.373395	0.869285	0.777056	0	0
67.73	-0.0604915	0.940281	1.67093	0.692721	0.11701	0.713757	1.66744	-0.610936	-0.293693	1.67683	0.324048	0	0	1.49065	-0.518921	-0.510611	1.66362	0.434093	0	0	-0.449442	-0.0461527	-0.0354518	1.24761	-0.360267	0.146337	0.914744	0.815875	0	0	1.31637	-0.476906	0.374154	0.871189	0.776351	0	0
67.74	-0.0587438	0.941781	1.67118	0.692474	0.117825	0.713701	1.66532	-0.611124	-0.292531	1.67817	0.325779	0	0	1.48947	-0.517909	-0.509298	1.66492	0.435022	0	0	-0.449463	-0.0450419	-0.0354726	1.24313	-0.361786	0.143478	0.917628	0.817736	0	0	1.31464	-0.475825	0.374938	0.871952	0.777066	0	0
67.75	-0.0571839	0.943048	1.67166	0.692238	0.118612	0.713671	1.66324	-0.611452	-0.291327	1.67912	0.327727	0	0	1.48825	-0.516552	-0.508293	1.66585	0.436309	0	0	-0.449003	-0.0441563	-0.0352845	1.23809	-0.363139	0.138928	0.919578	0.819149	0	0	1.31309	-0.473975	0.37647	0.871674	0.777299	0	0
67.76	-0.0556985	0.944235	1.67219	0.692023	0.1194	0.713692	1.66088	-0.611874	-0.290406	1.67981	0.329914	0	0	1.48686	-0.515263	-0.507504	1.6666	0.437792	0	0	-0.4483	-0.0433927	-0.034926	1.23305	-0.364477	0.134845	0.920595	0.820163	0	0	1.31194	-0.471986	0.379661	0.870494	0.775749	0	0
67.77	-0.0539891	0.945585	1.67233	0.69183	0.120167	0.713767	1.65788	-0.612279	-0.290152	1.68043	0.332262	0	0	1.48521	-0.514298	-0.506695	1.66719	0.439104	0	0	-0.447649	-0.0424731	-0.0342068	1.22877	-0.366203	0.133005	0.92049	0.820691	0	0	1.3114	-0.470222	0.384585	0.868009	0.773566	0	0
67.78	-0.0519654	0.947308	1.67185	0.691684	0.12094	0.713899	1.65389	-0.612548	-0.290776	1.68106	0.335119	0	0	1.48301	-0.51392	-0.505888	1.66767	0.440725	0	0	-0.447343	-0.0414428	-0.0330747	1.22537	-0.368303	0.132993	0.919137	0.820579	0	0	1.31154	-0.468529	0.390662	0.864419	0.77109	0	0
67.79	-0.0501044	0.948935	1.67102	0.691598	0.121703	0.714087	1.64934	-0.612392	-0.292093	1.68073	0.338651	0	0	1.48037	-0.513992	-0.505511	1.66769	0.442924	0	0	-0.446925	-0.0408163	-0.0315176	1.22242	-0.37076	0.134193	0.916078	0.819992	0	0	1.31251	-0.466923	0.398015	0.85989	0.768089	0	0
67.8	-0.0482167	0.950602	1.66961	0.691544	0.122439	0.714345	1.64407	-0.611841	-0.294332	1.67957	0.342832	0	0	1.47732	-0.514434	-0.505117	1.66739	0.44587	0	0	-0.446548	-0.0403326	-0.0294037	1.22024	-0.373711	0.136621	0.911241	0.818679	0	0	1.31457	-0.465513	0.40755	0.854084	0.764227	0	0
67.81	-0.046512	0.952133	1.66802	0.691513	0.123153	0.714688	1.63844	-0.611142	-0.297142	1.67768	0.347552	0	0	1.47367	-0.51486	-0.504945	1.66645	0.449958	0	0	-0.445959	-0.040067	-0.0269861	1.21842	-0.376935	0.140354	0.904976	0.81635	0	0	1.31714	-0.464114	0.418301	0.847345	0.759923	0	0
67.82	-0.0447116	0.953508	1.66662	0.691453	0.123848	0.715132	1.63243	-0.610969	-0.300461	1.67522	0.352744	0	0	1.46945	-0.51458	-0.504826	1.66447	0.455362	0	0	-0.445147	-0.0395928	-0.0247374	1.21684	-0.380686	0.146161	0.898301	0.813083	0	0	1.31979	-0.462565	0.429617	0.839946	0.755899	0	0
67.83	-0.0426999	0.954751	1.66518	0.691349	0.124528	0.715664	1.62602	-0.611279	-0.304408	1.67276	0.357625	0	0	1.46466	-0.513837	-0.50482	1.66149	0.461935	0	0	-0.444028	-0.0388644	-0.0227225	1.21504	-0.384502	0.152707	0.892623	0.810042	0	0	1.32218	-0.461052	0.441251	0.831988	0.752497	0	0
67.84	-0.0402658	0.955928	1.66321	0.691209	0.12518	0.716292	1.61894	-0.611722	-0.309374	1.66956	0.36316	0	0	1.45922	-0.513106	-0.505121	1.65757	0.469725	0	0	-0.442652	-0.0377579	-0.0206635	1.21328	-0.38822	0.159786	0.887506	0.808345	0	0	1.32401	-0.459507	0.452378	0.823563	0.749162	0	0
67.85	-0.037307	0.957203	1.66046	0.691087	0.125834	0.717044	1.61099	-0.612012	-0.315168	1.66616	0.369899	0	0	1.45304	-0.512874	-0.506056	1.65297	0.478418	0	0	-0.44126	-0.0363509	-0.0182515	1.21202	-0.392144	0.16791	0.881226	0.808063	0	0	1.32524	-0.457824	0.462855	0.815169	0.745469	0	0
